<?xml version="1.0" encoding="utf-8"?>
<!-- Generator: Adobe Illustrator 16.0.0, SVG Export Plug-In . SVG Version: 6.00 Build 0)  -->
<!DOCTYPE svg PUBLIC "-//W3C//DTD SVG 1.1//EN" "http://www.w3.org/Graphics/SVG/1.1/DTD/svg11.dtd" [
	<!ENTITY ns_flows "http://ns.adobe.com/Flows/1.0/">
	<!ENTITY ns_extend "http://ns.adobe.com/Extensibility/1.0/">
	<!ENTITY ns_ai "http://ns.adobe.com/AdobeIllustrator/10.0/">
	<!ENTITY ns_graphs "http://ns.adobe.com/Graphs/1.0/">
	<!ENTITY ns_vars "http://ns.adobe.com/Variables/1.0/">
	<!ENTITY ns_imrep "http://ns.adobe.com/ImageReplacement/1.0/">
	<!ENTITY ns_sfw "http://ns.adobe.com/SaveForWeb/1.0/">
	<!ENTITY ns_custom "http://ns.adobe.com/GenericCustomNamespace/1.0/">
	<!ENTITY ns_adobe_xpath "http://ns.adobe.com/XPath/1.0/">
]>
<svg version="1.1" id="Layer_1" xmlns:x="&ns_extend;" xmlns:i="&ns_ai;" xmlns:graph="&ns_graphs;"
	 xmlns="http://www.w3.org/2000/svg" xmlns:xlink="http://www.w3.org/1999/xlink" xmlns:a="http://ns.adobe.com/AdobeSVGViewerExtensions/3.0/"
	 x="0px" y="0px" width="96px" height="96px" viewBox="0 0 96 96" enable-background="new 0 0 96 96" xml:space="preserve">
<metadata>
	<sfw  xmlns="&ns_sfw;">
		<slices></slices>
		<sliceSourceBounds  width="96" height="96" y="99.5" x="551.5" bottomLeftOrigin="true"></sliceSourceBounds>
	</sfw>
</metadata>
<circle fill="#fff7eb" cx="48" cy="48" r="48"/>
<path fill="#335262" d="M72.252,33.769c-1.146,1.146-1.613,2.928-0.976,4.413c1.188,2.97,1.868,6.196,1.868,9.549
	c0,14.046-11.415,25.461-25.463,25.461v-7.595c0-1.91-2.292-2.843-3.607-1.487L32.234,75.95c-0.849,0.851-0.849,2.164,0,3.012
	l11.84,11.842c1.316,1.316,3.607,0.382,3.607-1.485v-7.64c18.757,0,33.949-15.192,33.949-33.948c0-4.414-0.85-8.658-2.418-12.52
	C78.065,32.368,74.416,31.604,72.252,33.769z"/>
<path fill="#E86C60" d="M47.682,22.268v7.596c0,1.91,2.291,2.843,3.607,1.486l11.84-11.84c0.849-0.849,0.849-2.165,0-3.013
	l-11.84-11.84c-1.316-1.316-3.607-0.382-3.607,1.528v7.595c-18.757,0-33.949,15.192-33.949,33.95c0,4.413,0.848,8.658,2.419,12.518
	c1.146,2.844,4.794,3.608,6.959,1.443c1.146-1.145,1.613-2.887,0.977-4.414c-1.231-2.927-1.867-6.195-1.867-9.547
	C22.22,33.684,33.636,22.268,47.682,22.268z"/>
</svg>
